<?xml version="1.0" encoding="UTF-8"?>
<!DOCTYPE svg PUBLIC "-//W3C//DTD SVG 1.1//EN" "http://www.w3.org/Graphics/SVG/1.1/DTD/svg11.dtd">
<!-- Creator: CorelDRAW (OEM Version) -->
<svg xmlns="http://www.w3.org/2000/svg" xml:space="preserve" width="24px" height="24px" version="1.1" style="shape-rendering:geometricPrecision; text-rendering:geometricPrecision; image-rendering:optimizeQuality; fill-rule:evenodd; clip-rule:evenodd"
viewBox="0 0 18.05 18.05"
 xmlns:xlink="http://www.w3.org/1999/xlink"
 xmlns:xodm="http://www.corel.com/coreldraw/odm/2003">
 <defs>
  <style type="text/css">
   <![CDATA[
    .fil0 {fill:#FEFEFE}
    .fil1 {fill:black}
   ]]>
  </style>
 </defs>
 <g id="Layer_x0020_1">
  <metadata id="CorelCorpID_0Corel-Layer"/>
  <g id="_2514257665552">
   <path class="fil0" d="M18.05 4.44l0 7.89 -0.42 0 0 -3.95 -1.32 1.52 -1.32 -1.52 0 3.95 -3.12 0 0 -7.89 3.02 0 1.42 1.65 1.43 -1.65 0.31 0zm-10.43 4.59c-0.14,0.18 -0.19,0.29 -0.34,0.43 -0.51,0.47 -1.27,0.46 -1.79,0.1 -1.21,-0.84 -0.49,-2.74 0.96,-2.61 0.48,0.04 0.82,0.31 1.02,0.57 0.22,0.3 0.07,0.23 0.57,0.23l2.4 0c-0.04,-0.94 -0.77,-2.01 -1.45,-2.58 -2.57,-2.19 -6.85,-0.46 -6.85,3.21 -0.01,3.56 4.11,5.48 6.87,3.2 0.36,-0.3 0.63,-0.6 0.92,-1.08 0.18,-0.3 0.52,-1.05 0.5,-1.47l-2.81 0z"/>
   <path class="fil1" d="M0 0l18.05 0 0 4.44 -0.31 0 -1.43 1.65 -1.42 -1.65 -3.02 0 0 7.89 3.12 0 0 -3.95 1.32 1.52 1.32 -1.52 0 3.95 0.42 0 0 5.72 -18.05 0 0 -18.05zm7.62 9.03c-0.14,0.18 -0.19,0.29 -0.34,0.43 -0.51,0.47 -1.27,0.46 -1.79,0.1 -1.21,-0.84 -0.49,-2.74 0.96,-2.61 0.48,0.04 0.82,0.31 1.02,0.57 0.22,0.3 0.07,0.23 0.57,0.23l2.4 0c-0.04,-0.94 -0.77,-2.01 -1.45,-2.58 -2.57,-2.19 -6.85,-0.46 -6.85,3.21 -0.01,3.56 4.11,5.48 6.87,3.2 0.36,-0.3 0.63,-0.6 0.92,-1.08 0.18,-0.3 0.52,-1.05 0.5,-1.47l-2.81 0z"/>
  </g>
 </g>
</svg>
